PathFileType	4	(X/Y/Z)	C:/Users/opensim2020/Desktop/walking_exp_matlab/subject02_walking11_straight_03.trc																																																																																																																												
DataRate	CameraRate	NumFrames	NumMarkers	Units	OrigDataRate	OrigDataStartFrame	OrigNumFrames																																																																																																																								
100	100	7	42	mm	100	2505	250																																																																																																																								
Frame#	Time	LFHD			RFHD			LBHD			RBHD			C7			T10			CLAV			STRN			RBAK			LSHO			LUPA			LELB			LFRM			LWRA			LWRB			LFIN			RSHO			RUPA			RELB			RFRM			RWRA			RWRB			RFIN			LASI			RASI			LPSI			RPSI			LTHI			LKNE			LTIB			LANK			LHEE			LTOE			RTHI			RKNE			RTIB			RANK			RHEE			RTOE			*39			*40			*41		
		X1	Y1	Z1	X2	Y2	Z2	X3	Y3	Z3	X4	Y4	Z4	X5	Y5	Z5	X6	Y6	Z6	X7	Y7	Z7	X8	Y8	Z8	X9	Y9	Z9	X10	Y10	Z10	X11	Y11	Z11	X12	Y12	Z12	X13	Y13	Z13	X14	Y14	Z14	X15	Y15	Z15	X16	Y16	Z16	X17	Y17	Z17	X18	Y18	Z18	X19	Y19	Z19	X20	Y20	Z20	X21	Y21	Z21	X22	Y22	Z22	X23	Y23	Z23	X24	Y24	Z24	X25	Y25	Z25	X26	Y26	Z26	X27	Y27	Z27	X28	Y28	Z28	X29	Y29	Z29	X30	Y30	Z30	X31	Y31	Z31	X32	Y32	Z32	X33	Y33	Z33	X34	Y34	Z34	X35	Y35	Z35	X36	Y36	Z36	X37	Y37	Z37	X38	Y38	Z38	X39	Y39	Z39	X40	Y40	Z40	X41	Y41	Z41	X42	Y42	Z42
																																																																																																																															
126	1.25	55.05826	1737.88989	1374.28064	56.67466	1724.96191	1518.2146	-49.85587	1628.73193	1367.39111	-59.32443	1611.16638	1509.63391	-81.82083	1511.646	1439.36316	-152.17419	1242.38733	1435.07739	53.05614	1438.18616	1432.19678	92.74361	1260.96094	1434.61536	-153.47638	1342.85022	1493.70532	1.81366	1493.08032	1263.38623	14.30164	1305.9989	1157.46252	43.69782	1169.97607	1123.70972	114.72683	1056.9469	1110.09875	222.71028	977.34515	1144.09241	182.70128	955.58118	1110.3761	233.77	914.4613	1103.00879	-11.60846	1465.28748	1628.12207	-57.32148	1272.79309	1702.10645	-49.55375	1127.23425	1721.30481	-20.97126	1011.9021	1746.60413	34.55672	886.78723	1736.30957	-16.06588	882.35248	1761.4502	22.64667	821.29083	1770.67993	68.29138	973.26654	1294.71887	76.47321	964.05145	1551.70483	-138.4765	1019.02393	1383.54895	-140.87802	1015.25885	1497.5603	-39.70858	667.11395	1253.11377	-102.82716	471.91177	1285.85608	-193.2108	297.85385	1290.85217	-226.12701	75.87999	1328.53735	-261.92886	50.17731	1382.11304	-74.60661	31.53507	1302.03906	54.53294	666.16858	1637.39453	135.00676	473.56387	1607.953	160.93462	290.06668	1625.79663	218.93466	102.16302	1605.86426	213.7444	38.12138	1550.27722	378.75592	96.65539	1632.27588	-63.13689	1774.33008	1460.42957	2846.06641	1034.0144	-3357.06445	NaN	NaN	NaN
127	1.26	63.07172	1736.8833	1376.04468	64.80283	1724.08545	1519.95996	-41.63142	1627.40625	1369.29675	-50.89672	1610.19067	1511.95801	-73.2575	1510.47534	1441.30286	-143.51944	1241.2262	1437.07727	61.60563	1437.08032	1434.1333	101.36069	1259.86792	1436.22327	-144.89868	1341.88354	1495.71655	10.81582	1492.1709	1265.37598	23.64557	1305.08313	1159.40369	52.69182	1169.11743	1125.64612	124.2469	1056.15588	1112.3916	232.4678	977.28668	1146.45422	192.77515	955.23096	1113.04065	243.9129	914.42578	1105.48779	-3.3768	1463.83813	1630.05005	-49.45158	1271.37012	1703.66895	-42.22879	1126.01196	1723.14771	-14.70142	1010.50342	1748.52637	39.40052	884.7735	1738.48242	-11.14881	880.87396	1763.57056	26.89752	819.39862	1772.91589	75.59958	971.81061	1295.00049	86.01263	963.08826	1552.52039	-129.98018	1017.65918	1385.89575	-131.8475	1014.24609	1499.89246	-33.87411	666.6983	1254.19519	-97.68352	471.65408	1286.67163	-190.13441	298.7009	1291.52258	-225.63193	77.02239	1328.5769	-261.44443	51.51725	1382.04248	-74.52812	31.48743	1301.91418	64.27422	665.39209	1638.51025	144.31265	472.47836	1608.33459	172.14339	289.34735	1626.32764	232.00304	101.83489	1606.177	227.01086	38.08356	1550.97888	392.35147	97.80416	1632.11133	-55.31681	1773.29663	1462.03442	2845.93579	1034.14661	-3356.84985	NaN	NaN	NaN
128	1.27	71.12669	1735.82471	1377.92883	72.89635	1723.17761	1521.88379	-33.4099	1626.21582	1371.39795	-42.75259	1608.99365	1513.69019	-64.83714	1509.40527	1443.33057	-134.86739	1240.08142	1439.16125	70.20922	1435.99219	1436.21936	110.05971	1258.77441	1437.8645	-136.28278	1340.38623	1497.32507	19.71246	1491.26855	1267.46582	32.98428	1304.25415	1161.68738	61.5679	1168.11279	1127.76917	133.19037	1055.27087	1114.75574	241.80933	976.92633	1149.06091	202.26656	954.60242	1115.672	253.46425	914.04572	1108.25	5.13141	1462.55579	1632.22046	-41.58815	1270.01819	1705.49622	-34.96091	1124.74341	1724.8689	-8.69053	1008.8764	1750.24146	44.55308	882.8454	1740.80872	-6.24544	879.38837	1765.54138	31.25321	817.57501	1775.19641	83.94947	970.82928	1296.01001	95.68668	962.0979	1553.38855	-121.36265	1016.27319	1388.29431	-122.63098	1013.17084	1502.37646	-27.31079	665.88733	1255.24109	-92.55194	471.60876	1287.45996	-186.96056	299.68423	1292.13843	-225.13086	78.34037	1328.62524	-261.39398	53.4842	1382.20337	-74.47139	31.44222	1301.79614	74.9717	664.77856	1639.71863	154.14198	471.57776	1608.88953	182.86465	288.5097	1626.68152	243.33173	101.24722	1606.46277	238.97293	37.021	1551.15576	403.71088	97.81939	1632.05762	-47.16333	1772.1626	1464.09436	2846.54175	1033.9707	-3355.30493	NaN	NaN	NaN
129	1.28	79.2125	1734.80273	1380.01855	81.01218	1722.24512	1523.95715	-25.07757	1624.9176	1373.52893	-34.45072	1607.84924	1515.88867	-56.13489	1508.28052	1445.46667	-125.95389	1238.83826	1441.37024	78.87014	1434.96338	1438.3158	118.85421	1257.77002	1439.60864	-127.55154	1339.09143	1499.37463	28.61536	1490.37695	1269.61816	41.83627	1303.31531	1163.97156	70.2204	1167.12622	1130.09033	142.15945	1054.22522	1117.32007	250.72177	976.29303	1151.85962	211.28032	953.75647	1118.54834	262.34515	913.36877	1110.90332	13.60129	1461.14551	1634.31592	-33.51433	1268.72461	1707.31653	-27.63839	1123.26831	1726.36194	-2.28163	1007.51605	1752.23413	49.99627	881.05017	1743.24084	-1.05205	878.03284	1767.66724	35.71368	815.81982	1777.48083	92.10348	969.61243	1296.75989	105.59571	961.21173	1554.48743	-112.5685	1014.87628	1390.96313	-113.26656	1012.09833	1505.00317	-20.76391	665.32336	1256.34277	-87.16037	471.53006	1288.26001	-183.62234	300.83237	1292.8407	-224.52701	79.67461	1328.56885	-260.72427	55.01831	1382.06323	-74.36424	31.35629	1301.67578	86.07777	663.91077	1640.98096	164.42218	470.67487	1609.79639	192.67935	287.54932	1627.44849	252.97415	100.47697	1606.83301	247.69983	36.20283	1551.26672	412.87036	96.25084	1631.89319	-39.202	1770.6709	1465.88477	2846.13086	1034.12683	-3356.93652	NaN	NaN	NaN
130	1.29	87.32923	1733.76404	1382.21008	89.20244	1721.323	1526.20288	-16.75759	1623.8147	1375.91187	-26.06483	1606.7373	1518.20166	-47.5593	1507.14539	1447.71362	-116.97751	1237.56042	1443.73767	87.58378	1433.96851	1440.56384	127.75174	1256.80603	1441.48608	-118.73937	1337.82263	1501.52332	37.43092	1489.50696	1271.84216	50.04127	1302.43262	1165.96802	78.76426	1166.16321	1132.54675	150.72713	1053.51343	1120.15479	259.22913	975.37726	1154.84998	219.89737	952.74402	1121.57556	271.18027	912.5451	1114.19092	22.08409	1459.87354	1636.47986	-25.42711	1267.49231	1709.29578	-19.97407	1122.39026	1728.44678	4.44279	1006.41388	1754.48108	55.63591	879.32159	1745.82031	4.31253	876.76477	1769.88049	40.48013	814.17859	1779.88782	100.49557	968.53864	1297.9845	115.63149	960.30811	1555.69189	-103.65564	1013.53479	1393.77698	-103.74044	1011.08252	1507.75842	-14.03134	664.86157	1257.5509	-81.52459	471.54419	1289.06421	-180.14304	302.1048	1293.52661	-223.82916	81.23912	1328.47009	-260.29166	57.04475	1381.92627	-74.25803	31.29644	1301.53479	97.21854	662.98346	1642.21057	175.0746	469.85803	1610.8457	202.00154	286.26807	1627.9884	260.66394	98.87924	1606.68665	255.08516	34.6478	1551.1853	420.47375	93.81052	1631.84021	-31.00979	1769.68787	1468.37048	2846.0061	1034.25952	-3356.89063	NaN	NaN	NaN
131	1.3	95.5796	1732.80811	1384.60815	97.42595	1720.40723	1528.60657	-8.40195	1622.72412	1378.25476	-17.59499	1605.60583	1521.16309	-39.02355	1506.04993	1450.03601	-107.89318	1236.25623	1446.26758	96.29079	1433.03625	1442.78967	136.73962	1255.88794	1443.42224	-109.93249	1336.56372	1503.80615	46.16266	1488.60376	1274.14258	58.96472	1301.62842	1168.66064	87.10503	1165.11658	1135.21899	159.06029	1052.27209	1123.08496	267.4173	974.40808	1158.20288	228.00735	951.51617	1124.81873	278.95856	911.16864	1117.32251	30.549	1458.51587	1638.5321	-17.28233	1266.31836	1711.31592	-12.23423	1121.29688	1730.38037	10.93872	1005.08643	1756.53772	61.35727	877.70013	1748.35547	9.96025	875.60083	1772.2218	45.48642	812.68323	1782.43091	108.96432	967.40912	1299.5697	125.90617	959.42627	1557.13245	-94.40587	1012.13214	1396.73425	-94.0067	1009.99304	1510.56824	-7.18463	664.35272	1258.89478	-75.51327	471.53027	1289.93054	-176.42433	303.51031	1294.17444	-223.11769	82.96205	1328.29163	-259.80255	59.23845	1381.67029	-74.15682	31.28075	1301.31689	110.82483	663.49292	1645.27832	185.73935	469.01822	1612.15393	210.61255	284.9313	1628.82141	266.66159	96.6085	1606.3269	260.46088	32.6421	1550.68591	426.20404	89.99307	1631.28442	-22.93302	1768.73926	1470.77991	2845.27051	1034.18054	-3360.34668	NaN	NaN	NaN
132	1.31	103.76115	1731.90259	1387.12659	105.57497	1719.31384	1531.00024	-0.10875	1621.66809	1380.75952	-9.38332	1604.39844	1523.34961	-30.422	1504.87659	1452.43311	-98.66582	1234.84009	1448.92444	105.02537	1432.10913	1445.18433	145.90152	1255.06604	1445.47949	-100.88522	1335.39478	1506.50037	54.76745	1487.72949	1276.50403	67.61339	1300.62939	1171.31836	95.30571	1164.09595	1138.09875	166.92232	1051.15051	1126.20959	275.09766	972.84674	1161.53052	235.7619	950.16986	1128.21179	286.6424	909.74152	1120.81348	39.09364	1457.34998	1640.85315	-9.17499	1265.05933	1713.13037	-4.48532	1119.93835	1732.05908	18.02489	1004.03577	1758.84204	67.12322	876.04236	1750.83655	15.74651	874.47925	1774.5282	50.74652	811.276	1785.01758	117.94134	966.51245	1301.19189	136.35609	958.69739	1558.79541	-85.04781	1010.80164	1399.84802	-84.0462	1008.94324	1513.57751	0.07773	664.00739	1260.3175	-69.28781	471.53793	1290.91797	-172.47484	304.94217	1294.89453	-222.34973	84.85432	1328.11646	-259.12744	61.6196	1381.47766	-73.9819	31.19011	1301.09827	123.59746	663.18225	1647.61597	196.26704	467.92563	1613.57056	218.45677	283.14758	1629.53906	271.51276	94.41173	1606.15955	263.5712	31.41657	1550.35632	430.63965	85.55573	1630.61646	-14.79788	1767.31042	1473.09497	2846.01709	1034.1637	-3356.82178	NaN	NaN	NaN
